<?xml version="1.0" standalone="no"?>
<!DOCTYPE svg PUBLIC "-//W3C//DTD SVG 20010904//EN"
 "http://www.w3.org/TR/2001/REC-SVG-20010904/DTD/svg10.dtd">
<svg version="1.0" xmlns="http://www.w3.org/2000/svg"
 width="700.000000pt" height="700.000000pt" viewBox="0 0 700.000000 700.000000"
 preserveAspectRatio="xMidYMid meet">
<metadata>
Created by potrace 1.14, written by Peter Selinger 2001-2017
</metadata>
<g transform="translate(0.000000,700.000000) scale(0.100000,-0.100000)"
fill="#000000" stroke="none">
<path d="M1775 5445 l-590 -352 0 -1384 0 -1383 310 -184 c812 -484 1571 -935
1578 -939 4 -2 7 182 7 409 l0 413 -598 356 -597 356 -3 971 -2 971 246 147
c190 113 251 145 263 137 533 -321 1106 -654 1119 -651 10 3 264 152 566 331
301 180 551 327 554 327 4 0 115 -65 247 -143 l240 -144 3 -301 2 -301 -257
-153 c-141 -84 -410 -241 -598 -349 l-340 -195 -3 -413 c-2 -329 0 -412 10
-408 7 3 276 159 598 346 l585 341 3 -247 c1 -136 1 -252 -2 -258 -2 -6 -274
-170 -605 -365 l-601 -355 0 -413 0 -412 38 19 c20 11 449 265 952 563 l915
543 0 1385 0 1384 -594 353 -594 354 -563 -336 -564 -335 -555 330 c-305 182
-560 332 -567 334 -7 2 -278 -155 -603 -349z"/>
</g>
</svg>
